<?xml version="1.0" encoding="utf-8"?>
<!-- Generator: Adobe Illustrator 16.0.0, SVG Export Plug-In . SVG Version: 6.00 Build 0)  -->
<!DOCTYPE svg PUBLIC "-//W3C//DTD SVG 1.1//EN" "http://www.w3.org/Graphics/SVG/1.1/DTD/svg11.dtd">
<svg version="1.1" id="Layer_1" xmlns="http://www.w3.org/2000/svg" xmlns:xlink="http://www.w3.org/1999/xlink" x="0px" y="0px"
	 width="224px" height="52px" viewBox="358.613 288.562 224 52" enable-background="new 358.613 288.562 224 52"
	 xml:space="preserve">
<g>
	<g>
		<g>
			<path fill="#FF2B06" d="M363.595,333.211l-2.127-3.066h2.027l1.138,1.689l1.127-1.689h1.964l-2.127,3.027l2.39,3.441h-2.026
				l-1.352-2.039l-1.352,2.039h-1.989L363.595,333.211z"/>
			<path fill="#FFFFFF" d="M376.407,332.785h-6.319v-1.34h6.319V332.785z M376.407,335.463h-6.319v-1.34h6.319V335.463z"/>
			<path fill="#FFFFFF" d="M381.249,329.143h-1.776v-1.463h1.776V329.143z M379.473,330.145h1.776v6.469h-1.776V330.145z"/>
			<path fill="#FFFFFF" d="M382.4,330.145h1.688v0.9h0.038c0.45-0.725,1.226-1.076,1.977-1.076c1.89,0,2.365,1.064,2.365,2.666
				v3.979h-1.777v-3.654c0-1.062-0.312-1.588-1.138-1.588c-0.964,0-1.377,0.537-1.377,1.852v3.391H382.4V330.145z"/>
			<path fill="#FFFFFF" d="M394.187,335.787h-0.025c-0.413,0.701-1.139,1.002-1.964,1.002c-1.952,0-2.903-1.678-2.903-3.467
				c0-1.738,0.963-3.354,2.865-3.354c0.764,0,1.515,0.326,1.928,0.963h-0.013h0.024v-3.252h1.777v8.934h-1.689V335.787z
				 M392.635,331.309c-1.164,0-1.564,1-1.564,2.064c0,1.014,0.464,2.076,1.564,2.076c1.177,0,1.526-1.025,1.526-2.09
				C394.162,332.309,393.786,331.309,392.635,331.309z"/>
			<path fill="#FFFFFF" d="M398.428,333.811c0.05,1.127,0.601,1.639,1.589,1.639c0.714,0,1.289-0.438,1.401-0.838h1.564
				c-0.501,1.527-1.564,2.178-3.028,2.178c-2.039,0-3.303-1.402-3.303-3.404c0-1.939,1.339-3.414,3.303-3.414
				c2.202,0,3.267,1.852,3.141,3.84H398.428L398.428,333.811z M401.318,332.686c-0.163-0.902-0.551-1.377-1.414-1.377
				c-1.126,0-1.451,0.875-1.477,1.377H401.318z"/>
			<path fill="#FFFFFF" d="M403.896,330.145h1.689v0.826h0.024c0.426-0.688,1.127-1.002,1.927-1.002c2.027,0,2.94,1.641,2.94,3.479
				c0,1.727-0.951,3.342-2.84,3.342c-0.776,0-1.515-0.338-1.939-0.977h-0.025v3.078h-1.776V330.145L403.896,330.145z M408.7,333.398
				c0-1.027-0.413-2.09-1.552-2.09c-1.163,0-1.539,1.039-1.539,2.09s0.4,2.051,1.552,2.051
				C408.325,335.449,408.7,334.449,408.7,333.398z"/>
			<path fill="#FFFFFF" d="M412.754,333.811c0.05,1.127,0.601,1.639,1.589,1.639c0.713,0,1.289-0.438,1.401-0.838h1.564
				c-0.501,1.527-1.564,2.178-3.028,2.178c-2.039,0-3.303-1.402-3.303-3.404c0-1.939,1.339-3.414,3.303-3.414
				c2.202,0,3.266,1.852,3.142,3.84H412.754L412.754,333.811z M415.645,332.686c-0.163-0.902-0.551-1.377-1.414-1.377
				c-1.126,0-1.451,0.875-1.477,1.377H415.645z"/>
			<path fill="#FFFFFF" d="M418.222,330.145h1.688v0.9h0.038c0.45-0.725,1.226-1.076,1.977-1.076c1.89,0,2.365,1.064,2.365,2.666
				v3.979h-1.776v-3.654c0-1.062-0.313-1.588-1.139-1.588c-0.964,0-1.377,0.537-1.377,1.852v3.391h-1.776V330.145z"/>
			<path fill="#FFFFFF" d="M430.008,335.787h-0.025c-0.412,0.701-1.139,1.002-1.964,1.002c-1.952,0-2.903-1.678-2.903-3.467
				c0-1.738,0.964-3.354,2.865-3.354c0.764,0,1.515,0.326,1.928,0.963h-0.013h0.024v-3.252h1.776v8.934h-1.688V335.787
				L430.008,335.787z M428.456,331.309c-1.164,0-1.564,1-1.564,2.064c0,1.014,0.464,2.076,1.564,2.076
				c1.177,0,1.526-1.025,1.526-2.09C429.982,332.309,429.607,331.309,428.456,331.309z"/>
			<path fill="#FFFFFF" d="M434.249,333.811c0.05,1.127,0.601,1.639,1.589,1.639c0.714,0,1.289-0.438,1.401-0.838h1.564
				c-0.501,1.527-1.564,2.178-3.028,2.178c-2.039,0-3.303-1.402-3.303-3.404c0-1.939,1.339-3.414,3.303-3.414
				c2.203,0,3.267,1.852,3.141,3.84H434.249L434.249,333.811L434.249,333.811z M437.14,332.686
				c-0.163-0.902-0.551-1.377-1.414-1.377c-1.126,0-1.451,0.875-1.477,1.377H437.14z"/>
			<path fill="#FFFFFF" d="M439.717,330.145h1.689v0.9h0.037c0.451-0.725,1.227-1.076,1.977-1.076c1.89,0,2.365,1.064,2.365,2.666
				v3.979h-1.776v-3.654c0-1.062-0.312-1.588-1.139-1.588c-0.964,0-1.376,0.537-1.376,1.852v3.391h-1.777V330.145z"/>
			<path fill="#FFFFFF" d="M449.139,330.145h1.301v1.189h-1.301v3.203c0,0.6,0.149,0.75,0.75,0.75c0.188,0,0.363-0.012,0.551-0.049
				v1.389c-0.3,0.049-0.688,0.062-1.038,0.062c-1.089,0-2.04-0.25-2.04-1.539v-3.816h-1.076v-1.189h1.076v-1.939h1.777V330.145
				L449.139,330.145z"/>
			<path fill="#FFFFFF" d="M451.09,327.68h1.776v8.934h-1.776V327.68z"/>
			<path fill="#FFFFFF" d="M457.208,337.426c-0.388,1.039-1.001,1.465-2.227,1.465c-0.363,0-0.727-0.025-1.089-0.062v-1.465
				c0.338,0.025,0.688,0.076,1.038,0.062c0.613-0.062,0.813-0.699,0.613-1.213l-2.277-6.068h1.902l1.464,4.43h0.025l1.414-4.43
				h1.839L457.208,337.426z"/>
			<path fill="#FFFFFF" d="M466.63,329.969c2.04,0,3.354,1.352,3.354,3.416c0,2.053-1.313,3.404-3.354,3.404
				c-2.027,0-3.341-1.352-3.341-3.404C463.289,331.32,464.603,329.969,466.63,329.969z M466.63,335.449
				c1.214,0,1.576-1.037,1.576-2.064c0-1.037-0.362-2.076-1.576-2.076c-1.201,0-1.564,1.037-1.564,2.076
				C465.065,334.412,465.429,335.449,466.63,335.449z"/>
			<path fill="#FFFFFF" d="M470.634,330.145h1.689v1.201h0.024c0.326-0.812,1.201-1.377,2.065-1.377
				c0.125,0,0.274,0.025,0.388,0.062v1.652c-0.163-0.037-0.426-0.062-0.639-0.062c-1.302,0-1.752,0.938-1.752,2.078v2.914h-1.776
				V330.145L470.634,330.145z"/>
			<path fill="#FFFFFF" d="M481.47,336.201c0,1.062-0.376,2.865-3.354,2.865c-1.276,0-2.765-0.602-2.853-2.078h1.765
				c0.162,0.664,0.7,0.889,1.326,0.889c0.989,0,1.438-0.676,1.427-1.602v-0.852h-0.025c-0.388,0.676-1.164,1.002-1.939,1.002
				c-1.939,0-2.766-1.477-2.766-3.254c0-1.676,0.964-3.203,2.778-3.203c0.851,0,1.502,0.287,1.927,1.039h0.025v-0.863h1.689V336.201
				L481.47,336.201z M479.78,333.297c0-1.051-0.363-1.988-1.515-1.988c-1.001,0-1.439,0.875-1.439,1.84
				c0,0.926,0.351,1.939,1.439,1.939C479.279,335.088,479.78,334.223,479.78,333.297z"/>
			<path fill="#FFFFFF" d="M482.319,332.135c0.101-1.666,1.589-2.166,3.041-2.166c1.289,0,2.84,0.289,2.84,1.84v3.365
				c0,0.588,0.062,1.178,0.226,1.439h-1.802c-0.063-0.199-0.112-0.412-0.125-0.625c-0.563,0.588-1.39,0.801-2.178,0.801
				c-1.227,0-2.202-0.613-2.202-1.939c0-1.465,1.102-1.814,2.202-1.965c1.089-0.162,2.103-0.125,2.103-0.852
				c0-0.762-0.525-0.875-1.151-0.875c-0.675,0-1.113,0.275-1.176,0.977H482.319L482.319,332.135z M486.424,333.447
				c-0.3,0.264-0.926,0.275-1.477,0.375c-0.551,0.113-1.051,0.301-1.051,0.951c0,0.664,0.513,0.826,1.089,0.826
				c1.389,0,1.438-1.1,1.438-1.488V333.447L486.424,333.447z"/>
			<path fill="#FFFFFF" d="M489.326,330.145h1.689v0.9h0.037c0.451-0.725,1.227-1.076,1.977-1.076c1.891,0,2.365,1.064,2.365,2.666
				v3.979h-1.776v-3.654c0-1.062-0.312-1.588-1.139-1.588c-0.964,0-1.377,0.537-1.377,1.852v3.391h-1.776V330.145L489.326,330.145z"
				/>
			<path fill="#FFFFFF" d="M498.072,329.143h-1.777v-1.463h1.777V329.143z M496.295,330.145h1.777v6.469h-1.777V330.145z"/>
			<path fill="#FFFFFF" d="M498.822,335.275l3.366-3.793h-3.116v-1.338h5.456v1.338l-3.366,3.793h3.604v1.338h-5.943V335.275
				L498.822,335.275z"/>
			<path fill="#FFFFFF" d="M506.931,333.811c0.05,1.127,0.601,1.639,1.589,1.639c0.713,0,1.289-0.438,1.401-0.838h1.563
				c-0.5,1.527-1.563,2.178-3.028,2.178c-2.039,0-3.303-1.402-3.303-3.404c0-1.939,1.339-3.414,3.303-3.414
				c2.202,0,3.267,1.852,3.142,3.84H506.931L506.931,333.811L506.931,333.811z M509.82,332.686c-0.162-0.902-0.55-1.377-1.413-1.377
				c-1.126,0-1.452,0.875-1.477,1.377H509.82z"/>
			<path fill="#FFFFFF" d="M517.016,335.787h-0.025c-0.413,0.701-1.139,1.002-1.964,1.002c-1.952,0-2.903-1.678-2.903-3.467
				c0-1.738,0.964-3.354,2.865-3.354c0.764,0,1.514,0.326,1.927,0.963h-0.013h0.025v-3.252h1.776v8.934h-1.688V335.787
				L517.016,335.787z M515.464,331.309c-1.164,0-1.564,1-1.564,2.064c0,1.014,0.463,2.076,1.564,2.076
				c1.176,0,1.526-1.025,1.526-2.09C516.99,332.309,516.615,331.309,515.464,331.309z"/>
			<path fill="#FFFFFF" d="M525.186,329.33h-2.678v-1.65h7.32v1.65h-2.678v7.283h-1.965V329.33L525.186,329.33z"/>
			<path fill="#FFFFFF" d="M530.603,327.68h6.683v1.65h-4.717v1.916h4.328v1.525h-4.328v2.191h4.816v1.65h-6.781L530.603,327.68
				L530.603,327.68z"/>
			<path fill="#FFFFFF" d="M538.21,327.68h3.854c2.314,0,4.054,1.451,4.054,4.416c0,2.592-1.326,4.518-4.054,4.518h-3.854V327.68z
				 M540.175,334.961h1.752c1.139,0,2.228-0.699,2.228-2.678c0-1.801-0.626-2.953-2.578-2.953h-1.401V334.961z"/>
			<path fill="#FFFFFF" d="M551.735,333.811c0.051,1.127,0.602,1.639,1.589,1.639c0.714,0,1.289-0.438,1.402-0.838h1.563
				c-0.501,1.527-1.563,2.178-3.028,2.178c-2.04,0-3.303-1.402-3.303-3.404c0-1.939,1.339-3.414,3.303-3.414
				c2.202,0,3.266,1.852,3.142,3.84H551.735L551.735,333.811L551.735,333.811z M554.626,332.686
				c-0.162-0.902-0.551-1.377-1.414-1.377c-1.126,0-1.451,0.875-1.477,1.377H554.626z"/>
			<path fill="#FFFFFF" d="M560.532,336.613h-1.978l-2.215-6.469h1.865l1.363,4.416h0.025l1.364-4.416h1.764L560.532,336.613z"/>
			<path fill="#FFFFFF" d="M564.423,333.811c0.051,1.127,0.602,1.639,1.589,1.639c0.713,0,1.289-0.438,1.401-0.838h1.563
				c-0.5,1.527-1.563,2.178-3.027,2.178c-2.04,0-3.304-1.402-3.304-3.404c0-1.939,1.339-3.414,3.304-3.414
				c2.202,0,3.266,1.852,3.141,3.84H564.423L564.423,333.811L564.423,333.811z M567.313,332.686
				c-0.163-0.902-0.551-1.377-1.414-1.377c-1.126,0-1.451,0.875-1.477,1.377H567.313z"/>
			<path fill="#FFFFFF" d="M569.891,330.145h1.689v0.9h0.037c0.451-0.725,1.227-1.076,1.977-1.076c1.89,0,2.365,1.064,2.365,2.666
				v3.979h-1.776v-3.654c0-1.062-0.312-1.588-1.139-1.588c-0.964,0-1.376,0.537-1.376,1.852v3.391h-1.777V330.145L569.891,330.145z"
				/>
			<path fill="#FFFFFF" d="M579.312,330.145h1.302v1.189h-1.302v3.203c0,0.6,0.15,0.75,0.752,0.75c0.188,0,0.362-0.012,0.55-0.049
				v1.389c-0.3,0.049-0.688,0.062-1.038,0.062c-1.089,0-2.039-0.25-2.039-1.539v-3.816h-1.076v-1.189h1.076v-1.939h1.775V330.145z"
				/>
		</g>
	</g>
	<g>
		<g>
			<path fill="#FF2B06" d="M368.95,298.121h-8.337v-7.623h25.83v7.623h-8.334v22.123h-9.159V298.121L368.95,298.121z"/>
			<path fill="#FF2B06" d="M387.866,290.498h25.074v7.623h-15.908v3.707h15.908v7.086h-15.908v3.707h15.913v7.625h-25.079V290.498z"
				/>
			<path fill="#FF2B06" d="M414.483,290.498h15.04c9.914,0,13.418,7.332,13.418,14.83c0,9.127-4.833,14.916-15.208,14.916h-13.25
				V290.498L414.483,290.498z M423.647,312.621h3.585c5.71,0,6.544-4.627,6.544-7.422c0-1.871-0.587-7.078-7.212-7.078h-2.917
				V312.621z"/>
		</g>
		<g>
			<g>
				<path fill="#FF2B06" d="M456.11,308.781l-2.796-4.637l-2.726,4.637h-6.716l6.375-9.375l-6.138-8.967h6.717l2.488,4.434
					l2.559-4.434h6.716l-6.136,8.967l6.375,9.375H456.11z"/>
			</g>
		</g>
	</g>
	<g enable-background="new    ">
		<path fill="#FFFFFF" d="M468.526,290.059h4.728l14.772,23.936v-23.936h3.831v29.623h-4.508l-14.992-23.904v23.904h-3.831V290.059
			L468.526,290.059z"/>
		<path fill="#FFFFFF" d="M519.888,290.059v3.529h-9.981v26.094h-4.054v-26.094h-9.981v-3.529H519.888z"/>
		<path fill="#FFFFFF" d="M527.913,290.059v18.311c0,2.152,0.406,3.939,1.22,5.365c1.206,2.15,3.239,3.227,6.098,3.227
			c3.429,0,5.759-1.164,6.992-3.49c0.664-1.264,0.996-2.963,0.996-5.102v-18.311h4.054v16.639c0,3.643-0.493,6.445-1.478,8.408
			c-1.808,3.576-5.221,5.363-10.239,5.363s-8.425-1.787-10.219-5.363c-0.985-1.963-1.477-4.766-1.477-8.408v-16.639H527.913
			L527.913,290.059z"/>
		<path fill="#FFFFFF" d="M553.785,290.059h21.496v3.631h-17.584v8.994h16.253v3.428h-16.253v10.041h17.887v3.529h-21.799V290.059z"
			/>
	</g>
</g>
</svg>
